<svg width="109" height="109" viewBox="0 0 109 109" fill="none" xmlns="http://www.w3.org/2000/svg">
<circle cx="54.5" cy="54.5" r="54.5" fill="#0A0A0A"/>
<path d="M79.7567 28.5475L78.5308 27.5615C78.3406 27.4089 78.1313 27.2869 77.9031 27.1954L76.2629 26.5416C76.0346 26.4502 75.799 26.3838 75.5559 26.3426L73.8545 26.0538C73.6114 26.0126 73.3666 25.995 73.12 26.0012L69.9496 26.0858C69.703 26.092 69.4585 26.1181 69.2162 26.1642L66.1388 26.7479C65.8964 26.7939 65.659 26.8568 65.4265 26.9366L62.5309 27.9349C62.2984 28.0146 62.0712 28.1068 61.8492 28.2113L59.4503 29.3415C59.2284 29.446 59.0135 29.5629 58.8056 29.6922L55.9417 31.4701C55.7339 31.5994 55.5345 31.74 55.3436 31.8919L53.063 33.7049C52.8721 33.8569 52.6928 34.0208 52.5251 34.1968L48.8009 38.1033C48.6333 38.2794 48.4811 38.4674 48.3444 38.6675L46.0068 42.0893C45.8701 42.2893 45.7454 42.4963 45.6326 42.7101L43.8572 46.0907C43.7445 46.3045 43.5648 46.4162 43.3183 46.4258L35.9207 46.7063C35.6741 46.716 35.6008 46.8308 35.7008 47.0508L35.8234 47.3189C35.9235 47.5389 36.0672 47.7273 36.2546 47.8841L37.1719 48.6513C37.3593 48.8081 37.5647 48.9377 37.788 49.0401L38.9146 49.5578C39.1379 49.6603 39.3693 49.7407 39.6089 49.7992L41.8493 50.3457C42.0888 50.4042 42.1632 50.5451 42.0723 50.7686L40.337 55.0484C40.2461 55.2718 40.1468 55.4918 40.039 55.7084L36.4522 62.8965C36.3444 63.113 36.1676 63.2292 35.9217 63.2451L31.9038 63.507C31.6579 63.5228 31.4145 63.5555 31.1735 63.605L27.8805 64.2815C27.6396 64.331 27.4029 64.3953 27.1704 64.4743L23.3236 65.7841C23.0911 65.8631 22.8646 65.9566 22.6441 66.0646L20.7693 66.9783C20.5488 67.0862 20.3368 67.2079 20.1331 67.3434L18.419 68.484C18.2154 68.6194 18.0319 68.7772 17.8684 68.9573L16.7736 70.1701C16.6101 70.3503 16.4808 70.5514 16.3857 70.7734L16.1427 71.3448C16.0476 71.5668 16 71.7982 16 72.0388V72.7607C16 73.0014 16.05 73.2317 16.1501 73.4517L16.2727 73.7198C16.3727 73.9398 16.5129 74.1316 16.6933 74.2953L17.6317 75.1451C17.8121 75.3087 18.0125 75.4445 18.233 75.5524L18.8396 75.8474C19.0601 75.9553 19.2909 76.0351 19.5318 76.0866L22.1907 76.6538C22.4317 76.7054 22.6754 76.7284 22.922 76.7229L26.7265 76.6363C26.9731 76.6308 27.2176 76.6064 27.4599 76.5631L30.2203 76.0742C30.4626 76.0309 30.7008 75.9711 30.9347 75.8948L34.6715 74.6799C34.9054 74.6036 35.1326 74.5115 35.3532 74.4036L37.4393 73.3867C37.6598 73.2788 37.8708 73.1554 38.0723 73.0165L41.0609 70.958C41.2624 70.8192 41.4731 70.8044 41.6929 70.9137L47.4799 73.7827C47.6997 73.892 47.9248 73.99 48.1552 74.0766L54.3333 76.395C54.5637 76.4816 54.7983 76.5545 55.0371 76.6136L61.4011 78.1894C61.64 78.2485 61.8816 78.2929 62.1261 78.3224L67.4164 78.9557C67.6609 78.9852 67.9064 79 68.153 79H72.8029C73.0495 79 73.2951 78.9838 73.5395 78.9515L78.3015 78.3266C78.5459 78.2943 78.7862 78.2427 79.0222 78.1719L83.8095 76.7343C84.0455 76.6635 84.2713 76.5693 84.4869 76.4517L88.3844 74.3293C88.6 74.2117 88.8001 74.0732 88.9847 73.9137L91.1786 72.0203C91.3632 71.8608 91.5287 71.6841 91.6753 71.4902L92.7638 70.0484C92.8779 69.8972 92.9508 69.7287 92.9825 69.5431L92.9931 69.4812C93.0248 69.2956 92.9473 69.2262 92.7606 69.2729L86.0013 70.9694C85.7625 71.0292 85.5212 71.078 85.2774 71.1158L79.3509 72.0337C79.1071 72.0715 78.8623 72.0976 78.6164 72.112L74.07 72.3781C73.8242 72.3926 73.5779 72.3953 73.3313 72.3864L68.2587 72.2069C68.0121 72.198 67.7669 72.176 67.5232 72.1409L63.1818 71.5242C62.9381 71.4892 62.6964 71.4424 62.4569 71.384L58.1029 70.3217C57.8633 70.2633 57.6284 70.1915 57.398 70.1062L51.1143 67.7837C50.8839 67.6985 50.6584 67.6019 50.4379 67.4939L46.0268 65.3427C45.8063 65.2347 45.757 65.0763 45.8789 64.8673L48.5779 60.2347C48.6998 60.0257 48.814 59.8126 48.9203 59.5953L50.9261 55.5032C51.0325 55.2859 51.1305 55.0652 51.2199 54.8411L52.6424 51.2852C52.7319 51.0611 52.8474 50.8504 52.989 50.6531L53.3039 50.2137C53.4456 50.0164 53.6372 49.894 53.8788 49.8466L60.0231 48.6482C60.2647 48.6008 60.5036 48.5427 60.7396 48.474L63.9417 47.5458C64.1777 47.477 64.4106 47.3983 64.6402 47.3096L67.967 46.0288C68.1967 45.9401 68.4218 45.8418 68.6423 45.7338L70.9398 44.6139C71.1603 44.5059 71.3749 44.3877 71.5834 44.2591L74.1282 42.6853C74.3367 42.5568 74.5329 42.4124 74.7168 42.2522L78.0753 39.3295C78.2592 39.1694 78.4195 38.9892 78.5562 38.7891L80.0484 36.6049C80.185 36.4048 80.29 36.19 80.3633 35.9603L81.0946 33.6585C81.1679 33.4289 81.1992 33.1937 81.1886 32.9531L81.1147 31.1999C81.1041 30.9593 81.0435 30.7314 80.9329 30.5162L80.2079 29.0992C80.0973 28.884 79.9469 28.7001 79.7567 28.5475ZM33.3315 68.7232V68.7542C33.3315 68.847 33.298 68.9261 33.2311 68.9914L31.796 70.3919C31.622 70.5617 31.4275 70.7057 31.2126 70.824L28.4755 72.3255C28.2606 72.4438 28.0334 72.5311 27.7939 72.5875L25.8705 73.0371C25.631 73.0935 25.3879 73.1217 25.1413 73.1217H24.6129C24.3663 73.1217 24.1374 73.0598 23.926 72.936L23.4832 72.6772C23.2852 72.561 23.2179 72.3946 23.2813 72.1781L23.3057 72.0966C23.3669 71.8862 23.4769 71.7037 23.6354 71.549L23.6882 71.4974C23.8467 71.3427 24.0243 71.2131 24.2208 71.1086L25.9265 70.2011C26.1428 70.0856 26.369 69.9928 26.605 69.9226L29.7014 68.9986C29.9374 68.9285 30.177 68.8728 30.42 68.8315L32.1215 68.5428C32.3645 68.5015 32.6083 68.4957 32.8528 68.5252L33.1899 68.5665C33.2843 68.5782 33.3315 68.6304 33.3315 68.7232ZM74.758 31.5093V32.4375C74.758 32.6781 74.7062 32.9077 74.6027 33.1264L73.6452 35.1518C73.5416 35.3704 73.4169 35.5767 73.2711 35.7706L72.5461 36.7359C72.4003 36.9297 72.2358 37.1075 72.0526 37.269L69.3261 39.6719C69.1429 39.8335 68.946 39.9768 68.7353 40.102L66.4083 41.4798C66.1976 41.6049 65.9799 41.717 65.7552 41.816L63.1533 42.9628C62.9286 43.0618 62.6992 43.1494 62.4653 43.2257L59.9967 44.0281C59.7628 44.1044 59.526 44.1707 59.2865 44.2271L56.394 44.9119C56.2369 44.949 56.0791 44.9521 55.9206 44.9212L55.8677 44.9109C55.7092 44.8799 55.667 44.7943 55.7409 44.6541L57.1507 41.9882C57.2641 41.7744 57.3938 41.5705 57.5396 41.3766L59.427 38.8644C59.5729 38.6706 59.7293 38.4849 59.8963 38.3075L61.826 36.2615C61.993 36.0841 62.1716 35.9187 62.3618 35.7654L64.8558 33.7503C65.046 33.597 65.2447 33.4553 65.4519 33.3254L66.31 32.7871C66.5171 32.6571 66.7334 32.5433 66.9588 32.4457L70.087 31.0885C70.3124 30.9909 70.5456 30.9173 70.7866 30.8678L72.0716 30.6038C72.3126 30.5543 72.5564 30.5296 72.8029 30.5296H73.5427C73.7893 30.5296 74.0112 30.6018 74.2085 30.7462L74.4621 30.9318C74.6594 31.0762 74.758 31.2687 74.758 31.5093Z" fill="white"/>
</svg>
